<?xml version="1.0" encoding="UTF-8"?>
<svg xmlns="http://www.w3.org/2000/svg" width="1200" height="630" viewBox="0 0 1200 630">
  <defs>
    <linearGradient id="bg" x1="0%" y1="0%" x2="100%" y2="100%">
      <stop offset="0%" stop-color="#030712"/>
      <stop offset="100%" stop-color="#0f172a"/>
    </linearGradient>
    <linearGradient id="hero" x1="0%" y1="0%" x2="100%" y2="100%">
      <stop offset="0%" stop-color="rgba(120,53,15,.55)"/>
      <stop offset="45%" stop-color="rgba(15,23,42,.95)"/>
      <stop offset="100%" stop-color="rgba(30,41,59,.85)"/>
    </linearGradient>
    <radialGradient id="glow" cx="50%" cy="0%" r="70%">
      <stop offset="0%" stop-color="rgba(251,191,36,.35)"/>
      <stop offset="70%" stop-color="transparent"/>
    </radialGradient>
  </defs>
  <rect width="1200" height="630" fill="url(#bg)"/>
  <g stroke="rgba(56,189,248,0.03)" stroke-width="1">
    <line x1="0.5" y1="0" x2="0.5" y2="630"/><line x1="48.5" y1="0" x2="48.5" y2="630"/><line x1="96.5" y1="0" x2="96.5" y2="630"/><line x1="144.5" y1="0" x2="144.5" y2="630"/><line x1="192.5" y1="0" x2="192.5" y2="630"/><line x1="240.5" y1="0" x2="240.5" y2="630"/><line x1="288.5" y1="0" x2="288.5" y2="630"/><line x1="336.5" y1="0" x2="336.5" y2="630"/><line x1="384.5" y1="0" x2="384.5" y2="630"/><line x1="432.5" y1="0" x2="432.5" y2="630"/><line x1="480.5" y1="0" x2="480.5" y2="630"/><line x1="528.5" y1="0" x2="528.5" y2="630"/><line x1="576.5" y1="0" x2="576.5" y2="630"/><line x1="624.5" y1="0" x2="624.5" y2="630"/><line x1="672.5" y1="0" x2="672.5" y2="630"/><line x1="720.5" y1="0" x2="720.5" y2="630"/><line x1="768.5" y1="0" x2="768.5" y2="630"/><line x1="816.5" y1="0" x2="816.5" y2="630"/><line x1="864.5" y1="0" x2="864.5" y2="630"/><line x1="912.5" y1="0" x2="912.5" y2="630"/><line x1="960.5" y1="0" x2="960.5" y2="630"/><line x1="1008.5" y1="0" x2="1008.5" y2="630"/><line x1="1056.5" y1="0" x2="1056.5" y2="630"/><line x1="1104.5" y1="0" x2="1104.5" y2="630"/><line x1="1152.5" y1="0" x2="1152.5" y2="630"/><line x1="1200.5" y1="0" x2="1200.5" y2="630"/>
    <line x1="0" y1="0.5" x2="1200" y2="0.5"/><line x1="0" y1="48.5" x2="1200" y2="48.5"/><line x1="0" y1="96.5" x2="1200" y2="96.5"/><line x1="0" y1="144.5" x2="1200" y2="144.5"/><line x1="0" y1="192.5" x2="1200" y2="192.5"/><line x1="0" y1="240.5" x2="1200" y2="240.5"/><line x1="0" y1="288.5" x2="1200" y2="288.5"/><line x1="0" y1="336.5" x2="1200" y2="336.5"/><line x1="0" y1="384.5" x2="1200" y2="384.5"/><line x1="0" y1="432.5" x2="1200" y2="432.5"/><line x1="0" y1="480.5" x2="1200" y2="480.5"/><line x1="0" y1="528.5" x2="1200" y2="528.5"/><line x1="0" y1="576.5" x2="1200" y2="576.5"/><line x1="0" y1="624.5" x2="1200" y2="624.5"/>
  </g>
  <rect width="1200" height="630" fill="url(#glow)"/>
  <text x="600" y="48" text-anchor="middle" fill="#67e8f9" font-family="Segoe UI, system-ui, sans-serif" font-size="22" font-weight="700" letter-spacing="0.08em">ODYSSEY CALC · COMMUNITY EVENT</text>
  <rect x="44" y="72" width="1112" height="112" rx="16" fill="url(#hero)" stroke="rgba(251,191,36,.4)" stroke-width="2"/>
  <text x="600" y="118" text-anchor="middle" fill="#fffbeb" font-family="Segoe UI, system-ui, sans-serif" font-size="38" font-weight="800">Dungeon Clear Challenge</text>
  <rect x="346" y="138" width="418" height="32" rx="16" fill="rgba(180,83,9,.45)" stroke="rgba(251,191,36,.35)"/>
  <text x="555" y="159" text-anchor="middle" fill="#fef3c7" font-family="Segoe UI, system-ui, sans-serif" font-size="14" font-weight="700">Thursday, May 29 – June 5, 2026</text>
  <rect x="774" y="138" width="80" height="32" rx="16" fill="rgba(59,130,246,.22)" stroke="rgba(96,165,250,.45)"/>
  <text x="814" y="159" text-anchor="middle" fill="#93c5fd" font-family="Segoe UI, system-ui, sans-serif" font-size="14" font-weight="700">Hard</text>
  <text x="600" y="212" text-anchor="middle" fill="#fde68a" font-family="Segoe UI, system-ui, sans-serif" font-size="20" font-weight="700" letter-spacing="0.12em">PRIZES</text>
  <g>
  <rect x="58" y="234" width="352" height="88" rx="12" fill="rgba(15,23,42,.92)" stroke="rgba(251,191,36,.28)" stroke-width="1.5"/>
  <text x="74" y="262" fill="#fde68a" font-family="Segoe UI, system-ui, sans-serif" font-size="13" font-weight="700">MELEE</text>
  <text x="74" y="288" fill="#fbbf24" font-family="Segoe UI, system-ui, sans-serif" font-size="22" font-weight="800">200 crowns</text>
  <text x="74" y="310" fill="#94a3b8" font-family="Segoe UI, system-ui, sans-serif" font-size="11" font-weight="600">Top parse · Best DPS</text>
</g>
<g>
  <rect x="424" y="234" width="352" height="88" rx="12" fill="rgba(15,23,42,.92)" stroke="rgba(251,191,36,.28)" stroke-width="1.5"/>
  <text x="440" y="262" fill="#fde68a" font-family="Segoe UI, system-ui, sans-serif" font-size="13" font-weight="700">RANGED</text>
  <text x="440" y="288" fill="#fbbf24" font-family="Segoe UI, system-ui, sans-serif" font-size="22" font-weight="800">200 crowns</text>
  <text x="440" y="310" fill="#94a3b8" font-family="Segoe UI, system-ui, sans-serif" font-size="11" font-weight="600">Top parse · Best DPS</text>
</g>
<g>
  <rect x="790" y="234" width="352" height="88" rx="12" fill="rgba(15,23,42,.92)" stroke="rgba(251,191,36,.28)" stroke-width="1.5"/>
  <text x="806" y="262" fill="#fde68a" font-family="Segoe UI, system-ui, sans-serif" font-size="13" font-weight="700">CASTER</text>
  <text x="806" y="288" fill="#fbbf24" font-family="Segoe UI, system-ui, sans-serif" font-size="22" font-weight="800">200 crowns</text>
  <text x="806" y="310" fill="#94a3b8" font-family="Segoe UI, system-ui, sans-serif" font-size="11" font-weight="600">Top parse · Best DPS</text>
</g>
<g>
  <rect x="58" y="334" width="352" height="88" rx="12" fill="rgba(15,23,42,.92)" stroke="rgba(251,191,36,.28)" stroke-width="1.5"/>
  <text x="74" y="362" fill="#fde68a" font-family="Segoe UI, system-ui, sans-serif" font-size="13" font-weight="700">HYBRID</text>
  <text x="74" y="388" fill="#fbbf24" font-family="Segoe UI, system-ui, sans-serif" font-size="22" font-weight="800">200 crowns</text>
  <text x="74" y="410" fill="#94a3b8" font-family="Segoe UI, system-ui, sans-serif" font-size="11" font-weight="600">Top parse · Best DPS</text>
</g>
<g>
  <rect x="424" y="334" width="352" height="88" rx="12" fill="rgba(15,23,42,.92)" stroke="rgba(251,191,36,.28)" stroke-width="1.5"/>
  <text x="440" y="362" fill="#fde68a" font-family="Segoe UI, system-ui, sans-serif" font-size="13" font-weight="700">TANK</text>
  <text x="440" y="388" fill="#fbbf24" font-family="Segoe UI, system-ui, sans-serif" font-size="22" font-weight="800">200 crowns</text>
  <text x="440" y="410" fill="#94a3b8" font-family="Segoe UI, system-ui, sans-serif" font-size="11" font-weight="600">Top parse · Best DPS</text>
</g>
<g>
  <rect x="790" y="334" width="352" height="88" rx="12" fill="rgba(15,23,42,.92)" stroke="rgba(251,191,36,.28)" stroke-width="1.5"/>
  <text x="806" y="362" fill="#fde68a" font-family="Segoe UI, system-ui, sans-serif" font-size="13" font-weight="700">HEALER</text>
  <text x="806" y="388" fill="#fbbf24" font-family="Segoe UI, system-ui, sans-serif" font-size="22" font-weight="800">200 crowns</text>
  <text x="806" y="410" fill="#94a3b8" font-family="Segoe UI, system-ui, sans-serif" font-size="11" font-weight="600">Top parse · Best DPS</text>
</g>
</svg>